<svg xmlns="http://www.w3.org/2000/svg" viewBox="0 0 500 500"><defs><style>.cls-1{fill:none;stroke:#fff;stroke-miterlimit:10;stroke-width:20px;}.cls-2{fill:#fff;}</style></defs><g id="Calque_40" data-name="Calque 40"><path class="cls-1" d="M417.08,130.42c0,43.07-5.32,83.25-14.71,119.58q-1,3.94-2.11,7.82C372.83,356,315,424.66,250.15,443.62l-.14.05h0c-64.9-18.92-122.81-87.56-150.26-185.85Q98.66,254,97.63,250C88.24,213.67,83,173.49,82.92,130.43c0-39.24,82.4-74.1,167.08-74.1h0C303.29,56.27,417.08,91.19,417.08,130.42Z"/><path class="cls-2" d="M402.37,250q-1,3.94-2.11,7.82C372.83,356,315,424.66,250.15,443.62l-.14.05h0V250Z"/><path class="cls-2" d="M250,56.33V250H97.63C88.24,213.67,83,173.49,82.92,130.43,82.92,91.19,165.32,56.33,250,56.33Z"/></g></svg>