<svg xmlns="http://www.w3.org/2000/svg" viewBox="0 0 500 500"><defs><style>.cls-1{fill:#fff;}</style></defs><g id="backspace-icon"><path class="cls-1" d="M455.5,131.89H151.27a20.09,20.09,0,0,0-13.29,5L27.07,235a20,20,0,0,0,0,30.06L138,363.08a20.09,20.09,0,0,0,13.29,5H455.5a20.06,20.06,0,0,0,20.06-20.06V152A20.06,20.06,0,0,0,455.5,131.89Zm-41.64,179a5.41,5.41,0,0,1,0,7.65l-20.09,20.09a5.4,5.4,0,0,1-7.64,0l-60.91-60.9-60.9,60.9a5.41,5.41,0,0,1-7.65,0l-20.09-20.09a5.41,5.41,0,0,1,0-7.65l60.9-60.9-60.9-60.9a5.41,5.41,0,0,1,0-7.65l20.09-20.09a5.41,5.41,0,0,1,7.65,0l60.9,60.9,60.91-60.9a5.4,5.4,0,0,1,7.64,0l20.09,20.09a5.41,5.41,0,0,1,0,7.65L353,250Z"/></g></svg>