<svg xmlns="http://www.w3.org/2000/svg" viewBox="0 0 500 500"><defs><style>.cls-1{fill:none;stroke-width:80px;}.cls-1,.cls-2{stroke:#fff;stroke-miterlimit:10;}.cls-2{fill:#fff;stroke-width:10px;}</style></defs><g id="settings-icon"><circle class="cls-1" cx="250" cy="250" r="145.02"/><path class="cls-2" d="M223.53,32.33h52.94a9.23,9.23,0,0,1,9.23,9.23v23a0,0,0,0,1,0,0H214.29a0,0,0,0,1,0,0v-23A9.23,9.23,0,0,1,223.53,32.33Z"/><path class="cls-2" d="M223.53,435.42h52.94a9.23,9.23,0,0,1,9.23,9.23v23a0,0,0,0,1,0,0H214.29a0,0,0,0,1,0,0v-23A9.23,9.23,0,0,1,223.53,435.42Z" transform="translate(500 903.09) rotate(180)"/><path class="cls-2" d="M366,376.39H419a9.23,9.23,0,0,1,9.23,9.23v23a0,0,0,0,1,0,0H356.81a0,0,0,0,1,0,0v-23A9.23,9.23,0,0,1,366,376.39Z" transform="translate(947.61 392.51) rotate(135)"/><path class="cls-2" d="M81,91.36H134a9.23,9.23,0,0,1,9.23,9.23v23a0,0,0,0,1,0,0H71.78a0,0,0,0,1,0,0v-23A9.23,9.23,0,0,1,81,91.36Z" transform="translate(-44.52 107.49) rotate(-45)"/><path class="cls-2" d="M81,376.39H134a9.23,9.23,0,0,1,9.23,9.23v23a0,0,0,0,1,0,0H71.78a0,0,0,0,1,0,0v-23A9.23,9.23,0,0,1,81,376.39Z" transform="translate(-94.06 746.07) rotate(-135)"/><path class="cls-2" d="M366,91.36H419a9.23,9.23,0,0,1,9.23,9.23v23a0,0,0,0,1,0,0H356.81a0,0,0,0,1,0,0v-23A9.23,9.23,0,0,1,366,91.36Z" transform="translate(190.97 -246.07) rotate(45)"/><path class="cls-2" d="M425.07,233.88H478a9.23,9.23,0,0,1,9.23,9.23v23a0,0,0,0,1,0,0H415.84a0,0,0,0,1,0,0v-23A9.23,9.23,0,0,1,425.07,233.88Z" transform="translate(701.54 -201.54) rotate(90)"/><path class="cls-2" d="M22,233.88H74.93a9.23,9.23,0,0,1,9.23,9.23v23a0,0,0,0,1,0,0H12.75a0,0,0,0,1,0,0v-23A9.23,9.23,0,0,1,22,233.88Z" transform="translate(-201.54 298.46) rotate(-90)"/></g></svg>