<svg xmlns="http://www.w3.org/2000/svg" viewBox="0 0 500 500"><defs><style>.cls-1{fill:#fff;}</style></defs><g id="toggle-emoji-icon"><path class="cls-1" d="M250,58.33C144.15,58.33,58.33,144.14,58.33,250S144.15,441.67,250,441.67,441.67,355.85,441.67,250,355.85,58.33,250,58.33ZM186.11,164.82c14.7,0,26.62,16.69,26.62,37.26s-11.92,37.28-26.62,37.28-26.62-16.69-26.62-37.28S171.42,164.82,186.11,164.82Zm143.6,145c-.48,1.91-12.44,46.64-79.71,46.64s-79.23-44.73-79.7-46.64a5.3,5.3,0,0,1,2.54-5.92,5.39,5.39,0,0,1,2.62-.68,5.31,5.31,0,0,1,3.75,1.54c.2.19,20.8,19.75,70.79,19.75s70.58-19.56,70.79-19.77a5.34,5.34,0,0,1,8.92,5.08ZM313.9,239.36c-14.71,0-26.63-16.69-26.63-37.28s11.92-37.26,26.63-37.26,26.61,16.69,26.61,37.26S328.59,239.36,313.9,239.36Z"/></g></svg>