<svg xmlns="http://www.w3.org/2000/svg" viewBox="0 0 500 500"><defs><style>.cls-1{fill:#fff;}</style></defs><g id="toggle-keyboard-icon"><path class="cls-1" d="M441.75,121.48H58.25a17.82,17.82,0,0,0-17.82,17.83V360.69a17.82,17.82,0,0,0,17.82,17.83h383.5a17.82,17.82,0,0,0,17.82-17.83V139.31A17.82,17.82,0,0,0,441.75,121.48ZM223.69,155.33h52.62V208H223.69Zm0,68.71h52.62v52.63H223.69Zm-70.38-68.71h52.63V208H153.31ZM135.56,276.67H82.93V224h52.63Zm0-68.71H82.93V155.33h52.63ZM153.31,224h52.63v52.63H153.31ZM341,345.37H159V292.75H341Zm5.69-68.7H294.06V224h52.63Zm0-68.71H294.06V155.33h52.63Zm70.38,68.71H364.44V224h52.63Zm0-68.71H364.44V155.33h52.63Z"/></g></svg>