<svg xmlns="http://www.w3.org/2000/svg" viewBox="0 0 500 500"><defs><style>.cls-1{fill:none;stroke:#fff;stroke-linecap:round;stroke-miterlimit:10;stroke-width:40px;}.cls-2{fill:#fff;}</style></defs><g id="lock-icon"><path class="cls-1" d="M69.86,166.9s-18-97,81.47-97c98,0,81.48,97,81.48,97"/><path class="cls-2" d="M419.6,197.44h-209a11.81,11.81,0,0,0-11.81,11.81V418.3a11.81,11.81,0,0,0,11.81,11.81h209a11.81,11.81,0,0,0,11.81-11.81v-209A11.81,11.81,0,0,0,419.6,197.44ZM328,330.11v26.66a7.84,7.84,0,0,1-7.84,7.84h-9.81a7.84,7.84,0,0,1-7.84-7.84V330.11a34.73,34.73,0,1,1,25.49,0Z"/></g></svg>