<svg xmlns="http://www.w3.org/2000/svg" viewBox="0 0 500 500"><defs><style>.e099c52f-ff40-46d1-92f3-a3679c6bbb7e{fill:#fff;}</style></defs><g id="b1768b53-5d3d-4c99-8254-b97b3c8bdf80" data-name="watchers-icon"><path class="e099c52f-ff40-46d1-92f3-a3679c6bbb7e" d="M354.19,210.25h0a63,63,0,0,0-63,63V463.42H417.22V273.28A63,63,0,0,0,354.19,210.25Z"/><circle class="e099c52f-ff40-46d1-92f3-a3679c6bbb7e" cx="351.58" cy="149.3" r="52.62"/><path class="e099c52f-ff40-46d1-92f3-a3679c6bbb7e" d="M148.92,205.75h0a66.14,66.14,0,0,0-66.14,66.14V471.42H215.07V271.89A66.15,66.15,0,0,0,148.92,205.75Z"/><circle class="e099c52f-ff40-46d1-92f3-a3679c6bbb7e" cx="146.19" cy="141.79" r="55.21"/><path class="e099c52f-ff40-46d1-92f3-a3679c6bbb7e" d="M253,165.13h0a78.4,78.4,0,0,0-78.4,78.39V480H331.39V243.52A78.39,78.39,0,0,0,253,165.13Z"/><circle class="e099c52f-ff40-46d1-92f3-a3679c6bbb7e" cx="249.76" cy="85.44" r="65.44"/></g></svg>