<svg xmlns="http://www.w3.org/2000/svg" viewBox="0 0 500 500"><defs><style>.cls-1,.cls-3{fill:#fff;}.cls-2{fill:none;stroke-width:25px;}.cls-2,.cls-3{stroke:#fff;stroke-miterlimit:10;}.cls-3{stroke-width:10px;}</style></defs><g id="user-settings-icon"><path class="cls-1" d="M329.73,143.42a79.71,79.71,0,0,1-38.63,68.34l-1.26.74a78.52,78.52,0,0,1-7.93,4,79.39,79.39,0,0,1-31.9,6.64c-2.52,0-5-.12-7.46-.35a79.74,79.74,0,1,1,87.18-79.38Z"/><path class="cls-1" d="M377.66,285.89A95.56,95.56,0,0,0,278,436.31H127.74a10,10,0,0,1-10-10V320.57a108.84,108.84,0,0,1,93.11-107.68,79.12,79.12,0,0,0,31.7,9.91c2.44.23,4.94.35,7.46.35a79.39,79.39,0,0,0,31.9-6.64,78.52,78.52,0,0,0,7.93-4,103.89,103.89,0,0,1,33.83,10A105.15,105.15,0,0,1,377.66,285.89Z"/><path class="cls-1" d="M281.91,216.51a79.39,79.39,0,0,1-31.9,6.64c-2.52,0-5-.12-7.46-.35a79.12,79.12,0,0,1-31.7-9.91,108.46,108.46,0,0,1,15.7-1.13H277.3c2.17,0,4.31.07,6.44.21s4.09.29,6.1.53A78.52,78.52,0,0,1,281.91,216.51Z"/><circle class="cls-2" cx="357.9" cy="381.26" r="48.97"/><path class="cls-3" d="M349,307.76h17.88a3.12,3.12,0,0,1,3.12,3.12v7.77a0,0,0,0,1,0,0H345.84a0,0,0,0,1,0,0v-7.77A3.12,3.12,0,0,1,349,307.76Z"/><path class="cls-3" d="M349,443.88h17.88A3.12,3.12,0,0,1,370,447v7.77a0,0,0,0,1,0,0H345.84a0,0,0,0,1,0,0V447A3.12,3.12,0,0,1,349,443.88Z" transform="translate(715.8 898.65) rotate(180)"/><path class="cls-3" d="M397.09,423.95H415a3.12,3.12,0,0,1,3.12,3.12v7.77a0,0,0,0,1,0,0H394a0,0,0,0,1,0,0v-7.77a3.12,3.12,0,0,1,3.12-3.12Z" transform="translate(996.76 445.91) rotate(135)"/><path class="cls-3" d="M300.84,327.69h17.88a3.12,3.12,0,0,1,3.12,3.12v7.77a0,0,0,0,1,0,0H297.72a0,0,0,0,1,0,0v-7.77A3.12,3.12,0,0,1,300.84,327.69Z" transform="translate(-144.83 316.62) rotate(-45)"/><path class="cls-3" d="M300.84,423.95h17.88a3.12,3.12,0,0,1,3.12,3.12v7.77a0,0,0,0,1,0,0H297.72a0,0,0,0,1,0,0v-7.77A3.12,3.12,0,0,1,300.84,423.95Z" transform="translate(225.19 952.06) rotate(-135)"/><path class="cls-3" d="M397.09,327.69H415a3.12,3.12,0,0,1,3.12,3.12v7.77a0,0,0,0,1,0,0H394a0,0,0,0,1,0,0v-7.77a3.12,3.12,0,0,1,3.12-3.12Z" transform="translate(354.49 -189.53) rotate(45)"/><path class="cls-3" d="M417,375.82H434.9a3.12,3.12,0,0,1,3.12,3.12v7.77a0,0,0,0,1,0,0H413.91a0,0,0,0,1,0,0v-7.77A3.12,3.12,0,0,1,417,375.82Z" transform="translate(807.23 -44.7) rotate(90)"/><path class="cls-3" d="M280.9,375.82h17.88a3.12,3.12,0,0,1,3.12,3.12v7.77a0,0,0,0,1,0,0H277.78a0,0,0,0,1,0,0v-7.77A3.12,3.12,0,0,1,280.9,375.82Z" transform="translate(-91.42 671.1) rotate(-90)"/></g></svg>