<svg xmlns="http://www.w3.org/2000/svg" viewBox="0 0 500 500"><defs><style>.cls-1{fill:#fff;}</style></defs><g id="user-icon"><path class="cls-1" d="M329.73,143.42a79.71,79.71,0,0,1-38.63,68.34l-1.26.74a78.52,78.52,0,0,1-7.93,4,79.39,79.39,0,0,1-31.9,6.64c-2.52,0-5-.12-7.46-.35a79.74,79.74,0,1,1,87.18-79.38Z"/><path class="cls-1" d="M382.26,316.71v109.6a10,10,0,0,1-10,10H127.74a10,10,0,0,1-10-10V320.57A108.75,108.75,0,0,1,226.55,211.76H277.3c2.17,0,4.31.07,6.44.21s4.09.29,6.1.53a104.94,104.94,0,0,1,92.42,104.21Z"/></g></svg>