<svg xmlns="http://www.w3.org/2000/svg" viewBox="0 0 500 500"><defs><style>.cls-1{fill:#fff;}</style></defs><g id="watchers-icon"><circle class="cls-1" cx="131.9" cy="125.29" r="55.41"/><path class="cls-1" d="M133.27,192.77h0a65,65,0,0,1,65,65V449.41a10,10,0,0,1-10,10h-113a10,10,0,0,1-10-10V260.77a68,68,0,0,1,68-68Z"/><circle class="cls-1" cx="368.83" cy="129.96" r="55.41"/><path class="cls-1" d="M370.21,197.44h0a65,65,0,0,1,65,65V454.08a10,10,0,0,1-10,10h-113a10,10,0,0,1-10-10V265.44a68,68,0,0,1,68-68Z"/><circle class="cls-1" cx="251.32" cy="92.91" r="62.46"/><path class="cls-1" d="M252.87,169h0a73.29,73.29,0,0,1,73.29,73.29v216a11.27,11.27,0,0,1-11.27,11.27H187.49a11.27,11.27,0,0,1-11.27-11.27V245.63A76.65,76.65,0,0,1,252.87,169Z"/></g></svg>